<svg width="50" height="50" viewBox="0 0 50 50" fill="none" xmlns="http://www.w3.org/2000/svg">
<rect width="50" height="50" rx="5" fill="#F04B4B"/>
<g filter="url(#filter0_d_17_307)">
<path d="M33 19.75C34.5188 19.75 35.75 18.5188 35.75 17C35.75 15.4812 34.5188 14.25 33 14.25C31.4812 14.25 30.25 15.4812 30.25 17C30.25 18.5188 31.4812 19.75 33 19.75Z" fill="white"/>
<path d="M32.04 21.15C30.47 20.81 29.19 19.53 28.85 17.96C28.72 17.35 28.71 16.76 28.82 16.2C28.95 15.58 28.49 15 27.85 15H20C17.24 15 15 17.24 15 20V26.95C15 29.71 17.24 31.95 20 31.95H21.5C21.78 31.95 22.14 32.13 22.3 32.35L23.8 34.34C24.46 35.22 25.54 35.22 26.2 34.34L27.7 32.35C27.89 32.1 28.18 31.95 28.5 31.95H30.01C32.77 31.95 35 29.72 35 26.96V22.15C35 21.52 34.42 21.06 33.8 21.18C33.24 21.28 32.65 21.28 32.04 21.15ZM21 25C20.44 25 20 24.55 20 24C20 23.45 20.44 23 21 23C21.55 23 22 23.45 22 24C22 24.55 21.56 25 21 25ZM25 25C24.44 25 24 24.55 24 24C24 23.45 24.44 23 25 23C25.55 23 26 23.45 26 24C26 24.55 25.56 25 25 25ZM29 25C28.44 25 28 24.55 28 24C28 23.45 28.44 23 29 23C29.55 23 30 23.45 30 24C30 24.55 29.56 25 29 25Z" fill="white"/>
</g>
<defs>
<filter id="filter0_d_17_307" x="9" y="13" width="32" height="32" filterUnits="userSpaceOnUse" color-interpolation-filters="sRGB">
<feFlood flood-opacity="0" result="BackgroundImageFix"/>
<feColorMatrix in="SourceAlpha" type="matrix" values="0 0 0 0 0 0 0 0 0 0 0 0 0 0 0 0 0 0 127 0" result="hardAlpha"/>
<feOffset dy="4"/>
<feGaussianBlur stdDeviation="2"/>
<feComposite in2="hardAlpha" operator="out"/>
<feColorMatrix type="matrix" values="0 0 0 0 0 0 0 0 0 0 0 0 0 0 0 0 0 0 0.1 0"/>
<feBlend mode="normal" in2="BackgroundImageFix" result="effect1_dropShadow_17_307"/>
<feBlend mode="normal" in="SourceGraphic" in2="effect1_dropShadow_17_307" result="shape"/>
</filter>
</defs>
</svg>
