<svg width="50" height="50" viewBox="0 0 50 50" fill="none" xmlns="http://www.w3.org/2000/svg">
<rect width="50" height="50" rx="5" fill="#F04B4B"/>
<g filter="url(#filter0_d_19_309)">
<path d="M30 35H20C19.59 35 19.25 34.66 19.25 34.25C19.25 33.84 19.59 33.5 20 33.5H30C30.41 33.5 30.75 33.84 30.75 34.25C30.75 34.66 30.41 35 30 35Z" fill="white"/>
<path d="M33.35 18.52L29.35 21.38C28.82 21.76 28.06 21.53 27.83 20.92L25.94 15.88C25.62 15.01 24.39 15.01 24.07 15.88L22.17 20.91C21.94 21.53 21.19 21.76 20.66 21.37L16.66 18.51C15.86 17.95 14.8 18.74 15.13 19.67L19.29 31.32C19.43 31.72 19.81 31.98 20.23 31.98H29.76C30.18 31.98 30.56 31.71 30.7 31.32L34.86 19.67C35.2 18.74 34.14 17.95 33.35 18.52ZM27.5 27.75H22.5C22.09 27.75 21.75 27.41 21.75 27C21.75 26.59 22.09 26.25 22.5 26.25H27.5C27.91 26.25 28.25 26.59 28.25 27C28.25 27.41 27.91 27.75 27.5 27.75Z" fill="white"/>
</g>
<defs>
<filter id="filter0_d_19_309" x="9" y="13" width="32" height="32" filterUnits="userSpaceOnUse" color-interpolation-filters="sRGB">
<feFlood flood-opacity="0" result="BackgroundImageFix"/>
<feColorMatrix in="SourceAlpha" type="matrix" values="0 0 0 0 0 0 0 0 0 0 0 0 0 0 0 0 0 0 127 0" result="hardAlpha"/>
<feOffset dy="4"/>
<feGaussianBlur stdDeviation="2"/>
<feComposite in2="hardAlpha" operator="out"/>
<feColorMatrix type="matrix" values="0 0 0 0 0 0 0 0 0 0 0 0 0 0 0 0 0 0 0.1 0"/>
<feBlend mode="normal" in2="BackgroundImageFix" result="effect1_dropShadow_19_309"/>
<feBlend mode="normal" in="SourceGraphic" in2="effect1_dropShadow_19_309" result="shape"/>
</filter>
</defs>
</svg>
