<svg width="50" height="50" viewBox="0 0 50 50" fill="none" xmlns="http://www.w3.org/2000/svg">
<rect width="50" height="50" rx="5" fill="#F04B4B"/>
<g filter="url(#filter0_d_18_308)">
<path d="M16 29.5C15.59 29.5 15.25 29.16 15.25 28.75V21.25C15.25 20.84 15.59 20.5 16 20.5C16.41 20.5 16.75 20.84 16.75 21.25V28.75C16.75 29.16 16.41 29.5 16 29.5Z" fill="white"/>
<path d="M20.5 32C20.09 32 19.75 31.66 19.75 31.25V18.75C19.75 18.34 20.09 18 20.5 18C20.91 18 21.25 18.34 21.25 18.75V31.25C21.25 31.66 20.91 32 20.5 32Z" fill="white"/>
<path d="M25 34.5C24.59 34.5 24.25 34.16 24.25 33.75V16.25C24.25 15.84 24.59 15.5 25 15.5C25.41 15.5 25.75 15.84 25.75 16.25V33.75C25.75 34.16 25.41 34.5 25 34.5Z" fill="white"/>
<path d="M29.5 32C29.09 32 28.75 31.66 28.75 31.25V18.75C28.75 18.34 29.09 18 29.5 18C29.91 18 30.25 18.34 30.25 18.75V31.25C30.25 31.66 29.91 32 29.5 32Z" fill="white"/>
<path d="M34 29.5C33.59 29.5 33.25 29.16 33.25 28.75V21.25C33.25 20.84 33.59 20.5 34 20.5C34.41 20.5 34.75 20.84 34.75 21.25V28.75C34.75 29.16 34.41 29.5 34 29.5Z" fill="white"/>
</g>
<defs>
<filter id="filter0_d_18_308" x="9" y="13" width="32" height="32" filterUnits="userSpaceOnUse" color-interpolation-filters="sRGB">
<feFlood flood-opacity="0" result="BackgroundImageFix"/>
<feColorMatrix in="SourceAlpha" type="matrix" values="0 0 0 0 0 0 0 0 0 0 0 0 0 0 0 0 0 0 127 0" result="hardAlpha"/>
<feOffset dy="4"/>
<feGaussianBlur stdDeviation="2"/>
<feComposite in2="hardAlpha" operator="out"/>
<feColorMatrix type="matrix" values="0 0 0 0 0 0 0 0 0 0 0 0 0 0 0 0 0 0 0.1 0"/>
<feBlend mode="normal" in2="BackgroundImageFix" result="effect1_dropShadow_18_308"/>
<feBlend mode="normal" in="SourceGraphic" in2="effect1_dropShadow_18_308" result="shape"/>
</filter>
</defs>
</svg>
